<svg xmlns="http://www.w3.org/2000/svg" width="27.987" height="27.983" viewBox="0 0 27.987 27.983">
  <g id="Iconly_Light_Bag" data-name="Iconly/Light/Bag" transform="translate(0.749 0.75)">
    <g id="Bag">
      <path id="Path_33955" d="M19.346,20.228H7.123c-4.49,0-7.934-1.526-6.956-7.667L1.306,4.237C1.91,1.173,3.987,0,5.81,0h14.9c1.85,0,3.806,1.261,4.5,4.237l1.139,8.323C27.187,18.008,23.836,20.228,19.346,20.228Z" transform="translate(0 6.255)" fill="none" stroke="#000" stroke-linecap="round" stroke-linejoin="round" stroke-miterlimit="10" stroke-width="1.5"/>
      <path id="Path_33956" d="M12.679,5.952A6.148,6.148,0,0,0,6.353,0h0A6.536,6.536,0,0,0,1.862,1.735,5.781,5.781,0,0,0,0,5.952H0" transform="translate(6.869 0)" fill="none" stroke="#000" stroke-linecap="round" stroke-linejoin="round" stroke-miterlimit="10" stroke-width="1.5"/>
      <path id="Line_192" d="M.5.458H.435" transform="translate(17.062 11.699)" fill="none" stroke="#000" stroke-linecap="round" stroke-linejoin="round" stroke-miterlimit="10" stroke-width="1.5"/>
      <path id="Line_193" d="M.5.458H.435" transform="translate(8.525 11.699)" fill="none" stroke="#000" stroke-linecap="round" stroke-linejoin="round" stroke-miterlimit="10" stroke-width="1.5"/>
    </g>
  </g>
</svg>
