<svg xmlns="http://www.w3.org/2000/svg" width="36.404" height="22.696" viewBox="0 0 36.404 22.696">
  <path id="_001-bicycle" data-name="001-bicycle" d="M29.625,105.537a6.77,6.77,0,0,0-1.59.189l-2.7-6.47,2.339-.779A1.067,1.067,0,0,0,27,96.453l-3.5,1.17a1.067,1.067,0,0,0-.574,1.395l.67,1.608-9.348,2.43-.96-2.24h1.483a1.067,1.067,0,1,0,0-2.133H10.205a1.067,1.067,0,1,0,0,2.133h.765l1.42,3.313-2.067,2.412a6.777,6.777,0,1,0,3.149,6.841h3.587a1.066,1.066,0,0,0,.862-.438l6.879-9.435,1.266,3.04a6.775,6.775,0,1,0,3.558-1.011ZM6.778,116.961A4.645,4.645,0,1,1,8.91,108.19l-2.941,3.431a1.066,1.066,0,0,0,.81,1.761H11.3A4.652,4.652,0,0,1,6.778,116.961ZM9.1,111.249l4.23-4.935,2.115,4.935Zm8.2-1.076-2.2-5.134,7.334-1.907Zm12.324,6.788a4.643,4.643,0,0,1-2.722-8.406l1.738,4.171a1.066,1.066,0,0,0,1.969-.82l-1.739-4.173a4.645,4.645,0,1,1,.754,9.228Z" transform="translate(0 -96.398)"/>
</svg>
