<svg xmlns="http://www.w3.org/2000/svg" width="19.537" height="18.033" viewBox="0 0 19.537 18.033"><g transform="translate(0.768 0.783)"><path d="M8.774,16.366a32.886,32.886,0,0,1-5.7-4.3A10.947,10.947,0,0,1,.353,7.879C-.666,4.813.525,1.3,3.857.264A5.818,5.818,0,0,1,9,1.1H9A5.827,5.827,0,0,1,14.136.264c3.332,1.039,4.531,4.549,3.512,7.616a10.947,10.947,0,0,1-2.715,4.189,32.886,32.886,0,0,1-5.7,4.3L9,16.5Z" transform="translate(0 0)" fill="none" stroke="#fff" stroke-linecap="round" stroke-linejoin="round" stroke-miterlimit="10" stroke-width="1.5"/></g></svg>