<svg xmlns="http://www.w3.org/2000/svg" width="17.5" height="20.327" viewBox="0 0 17.5 20.327"><g transform="translate(0.75 0.75)"><g transform="translate(0 0)"><path d="M0,11.094v-.206A3.388,3.388,0,0,1,.567,9.176,4.584,4.584,0,0,0,1.69,7c0-.627,0-1.264.055-1.891C2.028,2.088,5.014,0,7.963,0h.073c2.949,0,5.935,2.088,6.228,5.108.055.627,0,1.264.046,1.891a4.664,4.664,0,0,0,1.123,2.186,3.3,3.3,0,0,1,.566,1.7v.2a3.357,3.357,0,0,1-.794,2.249,4.24,4.24,0,0,1-2.685,1.29,42.426,42.426,0,0,1-9.049,0,4.287,4.287,0,0,1-2.685-1.29A3.392,3.392,0,0,1,0,11.094Z" transform="translate(0 0)" fill="none" stroke="#fff" stroke-linecap="round" stroke-linejoin="round" stroke-miterlimit="10" stroke-width="1.5"/><path d="M0,0A2.881,2.881,0,0,0,1.917,1.061,2.906,2.906,0,0,0,4.036.475,2.716,2.716,0,0,0,4.529,0" transform="translate(5.699 17.743)" fill="none" stroke="#fff" stroke-linecap="round" stroke-linejoin="round" stroke-miterlimit="10" stroke-width="1.5"/></g></g></svg>